<mxfile host="app.diagrams.net" agent="Mozilla/5.0 (Windows NT 10.0; Win64; x64; rv:141.0) Gecko/20100101 Firefox/141.0" version="28.0.7" pages="3">
  <diagram name="UML" id="hSNrYRc5qa0V1RLmMwgt">
    <mxGraphModel dx="361" dy="649" grid="1" gridSize="10" guides="1" tooltips="1" connect="1" arrows="1" fold="1" page="1" pageScale="1" pageWidth="827" pageHeight="1169" math="0" shadow="0">
      <root>
        <mxCell id="0" />
        <mxCell id="1" parent="0" />
        <mxCell id="gHh5gTc4rDgr5ecKEyl9-1" value="City" style="swimlane;fontStyle=1;align=center;verticalAlign=top;childLayout=stackLayout;horizontal=1;startSize=26;horizontalStack=0;resizeParent=1;resizeParentMax=0;resizeLast=0;collapsible=1;marginBottom=0;whiteSpace=wrap;html=1;fillColor=#ffcd28;strokeColor=#d79b00;gradientColor=#ffa500;" parent="1" vertex="1">
          <mxGeometry x="880" y="30" width="270" height="450" as="geometry" />
        </mxCell>
        <mxCell id="gHh5gTc4rDgr5ecKEyl9-2" value="- name : str" style="text;align=left;verticalAlign=top;spacingLeft=4;spacingRight=4;overflow=hidden;rotatable=0;points=[[0,0.5],[1,0.5]];portConstraint=eastwest;whiteSpace=wrap;html=1;fontColor=light-dark(#99CCFF,#99CCFF);" parent="gHh5gTc4rDgr5ecKEyl9-1" vertex="1">
          <mxGeometry y="26" width="270" height="26" as="geometry" />
        </mxCell>
        <mxCell id="gHh5gTc4rDgr5ecKEyl9-41" value="- day : int" style="text;align=left;verticalAlign=top;spacingLeft=4;spacingRight=4;overflow=hidden;rotatable=0;points=[[0,0.5],[1,0.5]];portConstraint=eastwest;whiteSpace=wrap;html=1;fontColor=light-dark(#99CCFF,#99CCFF);" parent="gHh5gTc4rDgr5ecKEyl9-1" vertex="1">
          <mxGeometry y="52" width="270" height="26" as="geometry" />
        </mxCell>
        <mxCell id="gHh5gTc4rDgr5ecKEyl9-12" value="- homeless_citizens : list [Citizen]" style="text;align=left;verticalAlign=top;spacingLeft=4;spacingRight=4;overflow=hidden;rotatable=0;points=[[0,0.5],[1,0.5]];portConstraint=eastwest;whiteSpace=wrap;html=1;fontColor=light-dark(#00FF00,#00FF00);" parent="gHh5gTc4rDgr5ecKEyl9-1" vertex="1">
          <mxGeometry y="78" width="270" height="26" as="geometry" />
        </mxCell>
        <mxCell id="gHh5gTc4rDgr5ecKEyl9-7" value="- facilities: list [Facility]" style="text;align=left;verticalAlign=top;spacingLeft=4;spacingRight=4;overflow=hidden;rotatable=0;points=[[0,0.5],[1,0.5]];portConstraint=eastwest;whiteSpace=wrap;html=1;fontColor=light-dark(#00FF00,#00FF00);" parent="gHh5gTc4rDgr5ecKEyl9-1" vertex="1">
          <mxGeometry y="104" width="270" height="26" as="geometry" />
        </mxCell>
        <mxCell id="gHh5gTc4rDgr5ecKEyl9-39" value="&lt;i&gt;- &lt;/i&gt;dailylog : list [str]" style="text;align=left;verticalAlign=top;spacingLeft=4;spacingRight=4;overflow=hidden;rotatable=0;points=[[0,0.5],[1,0.5]];portConstraint=eastwest;whiteSpace=wrap;html=1;fontColor=light-dark(#00FF00,#00FF00);" parent="gHh5gTc4rDgr5ecKEyl9-1" vertex="1">
          <mxGeometry y="130" width="270" height="26" as="geometry" />
        </mxCell>
        <mxCell id="gHh5gTc4rDgr5ecKEyl9-112" value="- resources : Dict {Resource : int}" style="text;align=left;verticalAlign=top;spacingLeft=4;spacingRight=4;overflow=hidden;rotatable=0;points=[[0,0.5],[1,0.5]];portConstraint=eastwest;whiteSpace=wrap;html=1;fontColor=light-dark(#00FF00,#00FF00);" parent="gHh5gTc4rDgr5ecKEyl9-1" vertex="1">
          <mxGeometry y="156" width="270" height="26" as="geometry" />
        </mxCell>
        <mxCell id="gHh5gTc4rDgr5ecKEyl9-40" value="+ capacity : int" style="text;align=left;verticalAlign=top;spacingLeft=4;spacingRight=4;overflow=hidden;rotatable=0;points=[[0,0.5],[1,0.5]];portConstraint=eastwest;whiteSpace=wrap;html=1;fontColor=light-dark(#FF9933,#FF9933);" parent="gHh5gTc4rDgr5ecKEyl9-1" vertex="1">
          <mxGeometry y="182" width="270" height="26" as="geometry" />
        </mxCell>
        <mxCell id="gHh5gTc4rDgr5ecKEyl9-111" value="+ weekday : int" style="text;align=left;verticalAlign=top;spacingLeft=4;spacingRight=4;overflow=hidden;rotatable=0;points=[[0,0.5],[1,0.5]];portConstraint=eastwest;whiteSpace=wrap;html=1;fontColor=light-dark(#FF9933,#FF9933);" parent="gHh5gTc4rDgr5ecKEyl9-1" vertex="1">
          <mxGeometry y="208" width="270" height="26" as="geometry" />
        </mxCell>
        <mxCell id="gHh5gTc4rDgr5ecKEyl9-8" value="+ happiness : int" style="text;align=left;verticalAlign=top;spacingLeft=4;spacingRight=4;overflow=hidden;rotatable=0;points=[[0,0.5],[1,0.5]];portConstraint=eastwest;whiteSpace=wrap;html=1;fontColor=light-dark(#FF9933,#FF9933);" parent="gHh5gTc4rDgr5ecKEyl9-1" vertex="1">
          <mxGeometry y="234" width="270" height="26" as="geometry" />
        </mxCell>
        <mxCell id="gHh5gTc4rDgr5ecKEyl9-5" value="+ citizens : list [Citizen]" style="text;align=left;verticalAlign=top;spacingLeft=4;spacingRight=4;overflow=hidden;rotatable=0;points=[[0,0.5],[1,0.5]];portConstraint=eastwest;whiteSpace=wrap;html=1;fontColor=light-dark(#FF9933,#FF9933);" parent="gHh5gTc4rDgr5ecKEyl9-1" vertex="1">
          <mxGeometry y="260" width="270" height="26" as="geometry" />
        </mxCell>
        <mxCell id="gHh5gTc4rDgr5ecKEyl9-3" value="" style="line;strokeWidth=1;fillColor=none;align=left;verticalAlign=middle;spacingTop=-1;spacingLeft=3;spacingRight=3;rotatable=0;labelPosition=right;points=[];portConstraint=eastwest;strokeColor=inherit;" parent="gHh5gTc4rDgr5ecKEyl9-1" vertex="1">
          <mxGeometry y="286" width="270" height="8" as="geometry" />
        </mxCell>
        <mxCell id="gHh5gTc4rDgr5ecKEyl9-4" value="+ add_building(Facility) -&amp;gt; void" style="text;strokeColor=none;fillColor=none;align=left;verticalAlign=top;spacingLeft=4;spacingRight=4;overflow=hidden;rotatable=0;points=[[0,0.5],[1,0.5]];portConstraint=eastwest;whiteSpace=wrap;html=1;" parent="gHh5gTc4rDgr5ecKEyl9-1" vertex="1">
          <mxGeometry y="294" width="270" height="26" as="geometry" />
        </mxCell>
        <mxCell id="gHh5gTc4rDgr5ecKEyl9-38" value="+ add_citizen(Citizen) -&amp;gt; void" style="text;strokeColor=none;fillColor=none;align=left;verticalAlign=top;spacingLeft=4;spacingRight=4;overflow=hidden;rotatable=0;points=[[0,0.5],[1,0.5]];portConstraint=eastwest;whiteSpace=wrap;html=1;" parent="gHh5gTc4rDgr5ecKEyl9-1" vertex="1">
          <mxGeometry y="320" width="270" height="26" as="geometry" />
        </mxCell>
        <mxCell id="gHh5gTc4rDgr5ecKEyl9-10" value="+ remove_citizen(Citizen) -&amp;gt; void" style="text;strokeColor=none;fillColor=none;align=left;verticalAlign=top;spacingLeft=4;spacingRight=4;overflow=hidden;rotatable=0;points=[[0,0.5],[1,0.5]];portConstraint=eastwest;whiteSpace=wrap;html=1;" parent="gHh5gTc4rDgr5ecKEyl9-1" vertex="1">
          <mxGeometry y="346" width="270" height="26" as="geometry" />
        </mxCell>
        <mxCell id="gHh5gTc4rDgr5ecKEyl9-101" value="+ add_resource(type(Resource), int) -&amp;gt; void" style="text;strokeColor=none;fillColor=none;align=left;verticalAlign=top;spacingLeft=4;spacingRight=4;overflow=hidden;rotatable=0;points=[[0,0.5],[1,0.5]];portConstraint=eastwest;whiteSpace=wrap;html=1;" parent="gHh5gTc4rDgr5ecKEyl9-1" vertex="1">
          <mxGeometry y="372" width="270" height="26" as="geometry" />
        </mxCell>
        <mxCell id="gHh5gTc4rDgr5ecKEyl9-11" value="+ live_day() -&amp;gt; void" style="text;strokeColor=none;fillColor=none;align=left;verticalAlign=top;spacingLeft=4;spacingRight=4;overflow=hidden;rotatable=0;points=[[0,0.5],[1,0.5]];portConstraint=eastwest;whiteSpace=wrap;html=1;" parent="gHh5gTc4rDgr5ecKEyl9-1" vertex="1">
          <mxGeometry y="398" width="270" height="26" as="geometry" />
        </mxCell>
        <mxCell id="gHh5gTc4rDgr5ecKEyl9-110" value="+ live_night() -&amp;gt; void" style="text;strokeColor=none;fillColor=none;align=left;verticalAlign=top;spacingLeft=4;spacingRight=4;overflow=hidden;rotatable=0;points=[[0,0.5],[1,0.5]];portConstraint=eastwest;whiteSpace=wrap;html=1;" parent="gHh5gTc4rDgr5ecKEyl9-1" vertex="1">
          <mxGeometry y="424" width="270" height="26" as="geometry" />
        </mxCell>
        <mxCell id="gHh5gTc4rDgr5ecKEyl9-28" value="" style="edgeStyle=orthogonalEdgeStyle;rounded=0;orthogonalLoop=1;jettySize=auto;html=1;startArrow=classic;startFill=1;endArrow=none;endFill=0;" parent="1" source="gHh5gTc4rDgr5ecKEyl9-14" target="gHh5gTc4rDgr5ecKEyl9-21" edge="1">
          <mxGeometry relative="1" as="geometry">
            <Array as="points">
              <mxPoint x="1005" y="870" />
            </Array>
          </mxGeometry>
        </mxCell>
        <mxCell id="gHh5gTc4rDgr5ecKEyl9-14" value="&lt;div&gt;Facility&lt;/div&gt;&lt;div&gt;&lt;i&gt;&lt;font style=&quot;font-size: 11px;&quot;&gt;Abstract Class&lt;/font&gt;&lt;/i&gt;&lt;/div&gt;" style="swimlane;fontStyle=1;align=center;verticalAlign=top;childLayout=stackLayout;horizontal=1;startSize=40;horizontalStack=0;resizeParent=1;resizeParentMax=0;resizeLast=0;collapsible=1;marginBottom=0;whiteSpace=wrap;html=1;fillColor=#dae8fc;strokeColor=#6c8ebf;gradientColor=#7ea6e0;" parent="1" vertex="1">
          <mxGeometry x="910" y="515.5" width="190" height="230" as="geometry" />
        </mxCell>
        <mxCell id="gHh5gTc4rDgr5ecKEyl9-15" value="- name : str" style="text;strokeColor=none;fillColor=none;align=left;verticalAlign=top;spacingLeft=4;spacingRight=4;overflow=hidden;rotatable=0;points=[[0,0.5],[1,0.5]];portConstraint=eastwest;whiteSpace=wrap;html=1;fontColor=light-dark(#99CCFF,#99CCFF);" parent="gHh5gTc4rDgr5ecKEyl9-14" vertex="1">
          <mxGeometry y="40" width="190" height="26" as="geometry" />
        </mxCell>
        <mxCell id="gHh5gTc4rDgr5ecKEyl9-18" value="- capacity : int" style="text;strokeColor=none;fillColor=none;align=left;verticalAlign=top;spacingLeft=4;spacingRight=4;overflow=hidden;rotatable=0;points=[[0,0.5],[1,0.5]];portConstraint=eastwest;whiteSpace=wrap;html=1;fontColor=light-dark(#99CCFF,#99CCFF);" parent="gHh5gTc4rDgr5ecKEyl9-14" vertex="1">
          <mxGeometry y="66" width="190" height="26" as="geometry" />
        </mxCell>
        <mxCell id="gHh5gTc4rDgr5ecKEyl9-19" value="- integrity : int" style="text;strokeColor=none;fillColor=none;align=left;verticalAlign=top;spacingLeft=4;spacingRight=4;overflow=hidden;rotatable=0;points=[[0,0.5],[1,0.5]];portConstraint=eastwest;whiteSpace=wrap;html=1;fontColor=light-dark(#99CCFF,#99CCFF);" parent="gHh5gTc4rDgr5ecKEyl9-14" vertex="1">
          <mxGeometry y="92" width="190" height="26" as="geometry" />
        </mxCell>
        <mxCell id="gHh5gTc4rDgr5ecKEyl9-16" value="" style="line;strokeWidth=1;fillColor=none;align=left;verticalAlign=middle;spacingTop=-1;spacingLeft=3;spacingRight=3;rotatable=0;labelPosition=right;points=[];portConstraint=eastwest;strokeColor=inherit;" parent="gHh5gTc4rDgr5ecKEyl9-14" vertex="1">
          <mxGeometry y="118" width="190" height="8" as="geometry" />
        </mxCell>
        <mxCell id="gHh5gTc4rDgr5ecKEyl9-17" value="+ repair(int) -&amp;gt; void" style="text;strokeColor=none;fillColor=none;align=left;verticalAlign=top;spacingLeft=4;spacingRight=4;overflow=hidden;rotatable=0;points=[[0,0.5],[1,0.5]];portConstraint=eastwest;whiteSpace=wrap;html=1;" parent="gHh5gTc4rDgr5ecKEyl9-14" vertex="1">
          <mxGeometry y="126" width="190" height="26" as="geometry" />
        </mxCell>
        <mxCell id="gHh5gTc4rDgr5ecKEyl9-31" value="+ damage(int) -&amp;gt; void" style="text;strokeColor=none;fillColor=none;align=left;verticalAlign=top;spacingLeft=4;spacingRight=4;overflow=hidden;rotatable=0;points=[[0,0.5],[1,0.5]];portConstraint=eastwest;whiteSpace=wrap;html=1;" parent="gHh5gTc4rDgr5ecKEyl9-14" vertex="1">
          <mxGeometry y="152" width="190" height="26" as="geometry" />
        </mxCell>
        <mxCell id="qWcJTYzNyKNJmHKsPlyp-1" value="+ check_status() -&amp;gt; void" style="text;strokeColor=none;fillColor=none;align=left;verticalAlign=top;spacingLeft=4;spacingRight=4;overflow=hidden;rotatable=0;points=[[0,0.5],[1,0.5]];portConstraint=eastwest;whiteSpace=wrap;html=1;" vertex="1" parent="gHh5gTc4rDgr5ecKEyl9-14">
          <mxGeometry y="178" width="190" height="26" as="geometry" />
        </mxCell>
        <mxCell id="tTH9jQnqVA3cRw_Qvqet-7" value="&lt;font style=&quot;font-size: 10px;&quot;&gt;&lt;i&gt;@Abstract&amp;nbsp;&lt;/i&gt;&lt;/font&gt;&lt;font&gt;c&lt;/font&gt;heck_state() -&amp;gt; void" style="text;strokeColor=none;fillColor=none;align=left;verticalAlign=top;spacingLeft=4;spacingRight=4;overflow=hidden;rotatable=0;points=[[0,0.5],[1,0.5]];portConstraint=eastwest;whiteSpace=wrap;html=1;" vertex="1" parent="gHh5gTc4rDgr5ecKEyl9-14">
          <mxGeometry y="204" width="190" height="26" as="geometry" />
        </mxCell>
        <mxCell id="gHh5gTc4rDgr5ecKEyl9-21" value="&lt;div&gt;Housing&lt;/div&gt;&lt;div&gt;&lt;i&gt;&lt;font style=&quot;font-size: 10px;&quot;&gt;Abstract Class&lt;/font&gt;&lt;/i&gt;&lt;/div&gt;" style="swimlane;fontStyle=1;align=center;verticalAlign=top;childLayout=stackLayout;horizontal=1;startSize=40;horizontalStack=0;resizeParent=1;resizeParentMax=0;resizeLast=0;collapsible=1;marginBottom=0;whiteSpace=wrap;html=1;fillColor=#dae8fc;strokeColor=#6c8ebf;gradientColor=#7ea6e0;" parent="1" vertex="1">
          <mxGeometry x="1100" y="840" width="190" height="100" as="geometry" />
        </mxCell>
        <mxCell id="gHh5gTc4rDgr5ecKEyl9-29" value="- inhabitants : list [Citizen]" style="text;strokeColor=none;fillColor=none;align=left;verticalAlign=top;spacingLeft=4;spacingRight=4;overflow=hidden;rotatable=0;points=[[0,0.5],[1,0.5]];portConstraint=eastwest;whiteSpace=wrap;html=1;fontColor=light-dark(#99CCFF,#99CCFF);" parent="gHh5gTc4rDgr5ecKEyl9-21" vertex="1">
          <mxGeometry y="40" width="190" height="26" as="geometry" />
        </mxCell>
        <mxCell id="gHh5gTc4rDgr5ecKEyl9-26" value="" style="line;strokeWidth=1;fillColor=none;align=left;verticalAlign=middle;spacingTop=-1;spacingLeft=3;spacingRight=3;rotatable=0;labelPosition=right;points=[];portConstraint=eastwest;strokeColor=inherit;" parent="gHh5gTc4rDgr5ecKEyl9-21" vertex="1">
          <mxGeometry y="66" width="190" height="8" as="geometry" />
        </mxCell>
        <mxCell id="qWcJTYzNyKNJmHKsPlyp-2" value="+ update_inhabitants() -&amp;gt; void" style="text;strokeColor=none;fillColor=none;align=left;verticalAlign=top;spacingLeft=4;spacingRight=4;overflow=hidden;rotatable=0;points=[[0,0.5],[1,0.5]];portConstraint=eastwest;whiteSpace=wrap;html=1;" vertex="1" parent="gHh5gTc4rDgr5ecKEyl9-21">
          <mxGeometry y="74" width="190" height="26" as="geometry" />
        </mxCell>
        <mxCell id="gHh5gTc4rDgr5ecKEyl9-36" style="edgeStyle=orthogonalEdgeStyle;rounded=0;orthogonalLoop=1;jettySize=auto;html=1;" parent="1" source="gHh5gTc4rDgr5ecKEyl9-32" target="gHh5gTc4rDgr5ecKEyl9-14" edge="1">
          <mxGeometry relative="1" as="geometry">
            <Array as="points">
              <mxPoint x="1005" y="760" />
            </Array>
          </mxGeometry>
        </mxCell>
        <mxCell id="gHh5gTc4rDgr5ecKEyl9-32" value="&lt;div&gt;Production&lt;/div&gt;&lt;div&gt;&lt;i&gt;&lt;font style=&quot;font-size: 10px;&quot;&gt;Abstract Class&lt;/font&gt;&lt;/i&gt;&lt;/div&gt;" style="swimlane;fontStyle=1;align=center;verticalAlign=top;childLayout=stackLayout;horizontal=1;startSize=40;horizontalStack=0;resizeParent=1;resizeParentMax=0;resizeLast=0;collapsible=1;marginBottom=0;whiteSpace=wrap;html=1;fillColor=#dae8fc;strokeColor=#6c8ebf;gradientColor=#7ea6e0;" parent="1" vertex="1">
          <mxGeometry x="1230" y="710" width="270" height="100" as="geometry" />
        </mxCell>
        <mxCell id="gHh5gTc4rDgr5ecKEyl9-54" value="- workers : list [Citizen]" style="text;strokeColor=none;fillColor=none;align=left;verticalAlign=top;spacingLeft=4;spacingRight=4;overflow=hidden;rotatable=0;points=[[0,0.5],[1,0.5]];portConstraint=eastwest;whiteSpace=wrap;html=1;fontColor=light-dark(#99CCFF,#99CCFF);" parent="gHh5gTc4rDgr5ecKEyl9-32" vertex="1">
          <mxGeometry y="40" width="270" height="26" as="geometry" />
        </mxCell>
        <mxCell id="gHh5gTc4rDgr5ecKEyl9-34" value="" style="line;strokeWidth=1;fillColor=none;align=left;verticalAlign=middle;spacingTop=-1;spacingLeft=3;spacingRight=3;rotatable=0;labelPosition=right;points=[];portConstraint=eastwest;strokeColor=inherit;" parent="gHh5gTc4rDgr5ecKEyl9-32" vertex="1">
          <mxGeometry y="66" width="270" height="8" as="geometry" />
        </mxCell>
        <mxCell id="gHh5gTc4rDgr5ecKEyl9-116" value="&lt;font style=&quot;font-size: 10px;&quot;&gt;&lt;i&gt;@Abstract&lt;/i&gt;&lt;/font&gt;&amp;nbsp;produce() -&amp;gt; (Type(Resource), int)" style="text;strokeColor=none;fillColor=none;align=left;verticalAlign=top;spacingLeft=4;spacingRight=4;overflow=hidden;rotatable=0;points=[[0,0.5],[1,0.5]];portConstraint=eastwest;whiteSpace=wrap;html=1;" parent="gHh5gTc4rDgr5ecKEyl9-32" vertex="1">
          <mxGeometry y="74" width="270" height="26" as="geometry" />
        </mxCell>
        <mxCell id="gHh5gTc4rDgr5ecKEyl9-43" value="Legend" style="swimlane;fontStyle=0;childLayout=stackLayout;horizontal=1;startSize=30;horizontalStack=0;resizeParent=1;resizeParentMax=0;resizeLast=0;collapsible=1;marginBottom=0;whiteSpace=wrap;html=1;" parent="1" vertex="1">
          <mxGeometry x="860" y="1030" width="140" height="120" as="geometry" />
        </mxCell>
        <mxCell id="gHh5gTc4rDgr5ecKEyl9-44" value="Calculated Props" style="text;align=left;verticalAlign=middle;spacingLeft=4;spacingRight=4;overflow=hidden;points=[[0,0.5],[1,0.5]];portConstraint=eastwest;rotatable=0;whiteSpace=wrap;html=1;fontColor=light-dark(#FF9933,#FF9933);" parent="gHh5gTc4rDgr5ecKEyl9-43" vertex="1">
          <mxGeometry y="30" width="140" height="30" as="geometry" />
        </mxCell>
        <mxCell id="gHh5gTc4rDgr5ecKEyl9-45" value="Read-Only" style="text;align=left;verticalAlign=middle;spacingLeft=4;spacingRight=4;overflow=hidden;points=[[0,0.5],[1,0.5]];portConstraint=eastwest;rotatable=0;whiteSpace=wrap;html=1;fontColor=light-dark(#99CCFF,#99CCFF);" parent="gHh5gTc4rDgr5ecKEyl9-43" vertex="1">
          <mxGeometry y="60" width="140" height="30" as="geometry" />
        </mxCell>
        <mxCell id="gHh5gTc4rDgr5ecKEyl9-46" value="Read-Write" style="text;align=left;verticalAlign=middle;spacingLeft=4;spacingRight=4;overflow=hidden;points=[[0,0.5],[1,0.5]];portConstraint=eastwest;rotatable=0;whiteSpace=wrap;html=1;fontColor=light-dark(#00FF00,#00FF00);" parent="gHh5gTc4rDgr5ecKEyl9-43" vertex="1">
          <mxGeometry y="90" width="140" height="30" as="geometry" />
        </mxCell>
        <mxCell id="gHh5gTc4rDgr5ecKEyl9-52" style="edgeStyle=orthogonalEdgeStyle;rounded=0;orthogonalLoop=1;jettySize=auto;html=1;" parent="1" source="gHh5gTc4rDgr5ecKEyl9-47" target="gHh5gTc4rDgr5ecKEyl9-14" edge="1">
          <mxGeometry relative="1" as="geometry">
            <Array as="points">
              <mxPoint x="1005" y="1010" />
            </Array>
          </mxGeometry>
        </mxCell>
        <mxCell id="gHh5gTc4rDgr5ecKEyl9-47" value="&lt;div&gt;Leisure&lt;/div&gt;&lt;div&gt;&lt;i&gt;&lt;font style=&quot;font-size: 10px;&quot;&gt;Abstract Class&lt;/font&gt;&lt;/i&gt;&lt;/div&gt;" style="swimlane;fontStyle=1;align=center;verticalAlign=top;childLayout=stackLayout;horizontal=1;startSize=42;horizontalStack=0;resizeParent=1;resizeParentMax=0;resizeLast=0;collapsible=1;marginBottom=0;whiteSpace=wrap;html=1;fillColor=#dae8fc;strokeColor=#6c8ebf;gradientColor=#7ea6e0;" parent="1" vertex="1">
          <mxGeometry x="1100" y="990" width="190" height="50" as="geometry" />
        </mxCell>
        <mxCell id="gHh5gTc4rDgr5ecKEyl9-49" value="" style="line;strokeWidth=1;fillColor=none;align=left;verticalAlign=middle;spacingTop=-1;spacingLeft=3;spacingRight=3;rotatable=0;labelPosition=right;points=[];portConstraint=eastwest;strokeColor=inherit;" parent="gHh5gTc4rDgr5ecKEyl9-47" vertex="1">
          <mxGeometry y="42" width="190" height="8" as="geometry" />
        </mxCell>
        <mxCell id="mZAiKF3BIAbm9ngjPxyb-10" value="" style="edgeStyle=orthogonalEdgeStyle;rounded=0;orthogonalLoop=1;jettySize=auto;html=1;" edge="1" parent="1" source="gHh5gTc4rDgr5ecKEyl9-56" target="mZAiKF3BIAbm9ngjPxyb-1">
          <mxGeometry relative="1" as="geometry">
            <Array as="points">
              <mxPoint x="1410" y="520" />
              <mxPoint x="1410" y="468" />
            </Array>
          </mxGeometry>
        </mxCell>
        <mxCell id="gHh5gTc4rDgr5ecKEyl9-56" value="Citizen" style="swimlane;fontStyle=1;align=center;verticalAlign=top;childLayout=stackLayout;horizontal=1;startSize=30;horizontalStack=0;resizeParent=1;resizeParentMax=0;resizeLast=0;collapsible=1;marginBottom=0;whiteSpace=wrap;html=1;fillColor=#d5e8d4;gradientColor=#97d077;strokeColor=#82b366;" parent="1" vertex="1">
          <mxGeometry x="1165" y="410" width="230" height="272" as="geometry" />
        </mxCell>
        <mxCell id="gHh5gTc4rDgr5ecKEyl9-57" value="&lt;span style=&quot;&quot;&gt;- name : str&lt;/span&gt;" style="text;strokeColor=none;fillColor=none;align=left;verticalAlign=top;spacingLeft=4;spacingRight=4;overflow=hidden;rotatable=0;points=[[0,0.5],[1,0.5]];portConstraint=eastwest;whiteSpace=wrap;html=1;fontColor=light-dark(#99CCFF,#99CCFF);" parent="gHh5gTc4rDgr5ecKEyl9-56" vertex="1">
          <mxGeometry y="30" width="230" height="26" as="geometry" />
        </mxCell>
        <mxCell id="gHh5gTc4rDgr5ecKEyl9-58" value="- age : int" style="text;strokeColor=none;fillColor=none;align=left;verticalAlign=top;spacingLeft=4;spacingRight=4;overflow=hidden;rotatable=0;points=[[0,0.5],[1,0.5]];portConstraint=eastwest;whiteSpace=wrap;html=1;fontColor=light-dark(#00FF00,#00FF00);" parent="gHh5gTc4rDgr5ecKEyl9-56" vertex="1">
          <mxGeometry y="56" width="230" height="26" as="geometry" />
        </mxCell>
        <mxCell id="gHh5gTc4rDgr5ecKEyl9-63" value="- satisfaction : int" style="text;strokeColor=none;fillColor=none;align=left;verticalAlign=top;spacingLeft=4;spacingRight=4;overflow=hidden;rotatable=0;points=[[0,0.5],[1,0.5]];portConstraint=eastwest;whiteSpace=wrap;html=1;fontColor=light-dark(#00FF00,#00FF00);" parent="gHh5gTc4rDgr5ecKEyl9-56" vertex="1">
          <mxGeometry y="82" width="230" height="26" as="geometry" />
        </mxCell>
        <mxCell id="mZAiKF3BIAbm9ngjPxyb-12" value="- work : Work" style="text;strokeColor=none;fillColor=none;align=left;verticalAlign=top;spacingLeft=4;spacingRight=4;overflow=hidden;rotatable=0;points=[[0,0.5],[1,0.5]];portConstraint=eastwest;whiteSpace=wrap;html=1;fontColor=light-dark(#00FF00,#00FF00);" vertex="1" parent="gHh5gTc4rDgr5ecKEyl9-56">
          <mxGeometry y="108" width="230" height="26" as="geometry" />
        </mxCell>
        <mxCell id="gHh5gTc4rDgr5ecKEyl9-60" value="" style="line;strokeWidth=1;fillColor=none;align=left;verticalAlign=middle;spacingTop=-1;spacingLeft=3;spacingRight=3;rotatable=0;labelPosition=right;points=[];portConstraint=eastwest;strokeColor=inherit;" parent="gHh5gTc4rDgr5ecKEyl9-56" vertex="1">
          <mxGeometry y="134" width="230" height="8" as="geometry" />
        </mxCell>
        <mxCell id="gHh5gTc4rDgr5ecKEyl9-62" value="+ grow() -&amp;gt; void" style="text;strokeColor=none;fillColor=none;align=left;verticalAlign=top;spacingLeft=4;spacingRight=4;overflow=hidden;rotatable=0;points=[[0,0.5],[1,0.5]];portConstraint=eastwest;whiteSpace=wrap;html=1;" parent="gHh5gTc4rDgr5ecKEyl9-56" vertex="1">
          <mxGeometry y="142" width="230" height="26" as="geometry" />
        </mxCell>
        <mxCell id="gHh5gTc4rDgr5ecKEyl9-114" value="- aging() -&amp;gt; void" style="text;strokeColor=none;fillColor=none;align=left;verticalAlign=top;spacingLeft=4;spacingRight=4;overflow=hidden;rotatable=0;points=[[0,0.5],[1,0.5]];portConstraint=eastwest;whiteSpace=wrap;html=1;" parent="gHh5gTc4rDgr5ecKEyl9-56" vertex="1">
          <mxGeometry y="168" width="230" height="26" as="geometry" />
        </mxCell>
        <mxCell id="tTH9jQnqVA3cRw_Qvqet-2" value="- consume_resources(Resource) -&amp;gt; void" style="text;strokeColor=none;fillColor=none;align=left;verticalAlign=top;spacingLeft=4;spacingRight=4;overflow=hidden;rotatable=0;points=[[0,0.5],[1,0.5]];portConstraint=eastwest;whiteSpace=wrap;html=1;" vertex="1" parent="gHh5gTc4rDgr5ecKEyl9-56">
          <mxGeometry y="194" width="230" height="26" as="geometry" />
        </mxCell>
        <mxCell id="tTH9jQnqVA3cRw_Qvqet-3" value="- update_status&amp;nbsp;-&amp;gt; void" style="text;strokeColor=none;fillColor=none;align=left;verticalAlign=top;spacingLeft=4;spacingRight=4;overflow=hidden;rotatable=0;points=[[0,0.5],[1,0.5]];portConstraint=eastwest;whiteSpace=wrap;html=1;" vertex="1" parent="gHh5gTc4rDgr5ecKEyl9-56">
          <mxGeometry y="220" width="230" height="26" as="geometry" />
        </mxCell>
        <mxCell id="tTH9jQnqVA3cRw_Qvqet-4" value="- sleep() -&amp;gt; void" style="text;strokeColor=none;fillColor=none;align=left;verticalAlign=top;spacingLeft=4;spacingRight=4;overflow=hidden;rotatable=0;points=[[0,0.5],[1,0.5]];portConstraint=eastwest;whiteSpace=wrap;html=1;" vertex="1" parent="gHh5gTc4rDgr5ecKEyl9-56">
          <mxGeometry y="246" width="230" height="26" as="geometry" />
        </mxCell>
        <mxCell id="p-D4rso45VV0s9aIk9N6-5" style="edgeStyle=orthogonalEdgeStyle;rounded=0;orthogonalLoop=1;jettySize=auto;html=1;" parent="1" source="gHh5gTc4rDgr5ecKEyl9-65" target="gHh5gTc4rDgr5ecKEyl9-32" edge="1">
          <mxGeometry relative="1" as="geometry">
            <Array as="points">
              <mxPoint x="1365" y="1093" />
            </Array>
          </mxGeometry>
        </mxCell>
        <mxCell id="gHh5gTc4rDgr5ecKEyl9-65" value="Power Plant" style="swimlane;fontStyle=1;align=center;verticalAlign=top;childLayout=stackLayout;horizontal=1;startSize=32;horizontalStack=0;resizeParent=1;resizeParentMax=0;resizeLast=0;collapsible=1;marginBottom=0;whiteSpace=wrap;html=1;fillColor=#dae8fc;strokeColor=#6c8ebf;gradientColor=#7ea6e0;" parent="1" vertex="1">
          <mxGeometry x="1400" y="1060" width="230" height="66" as="geometry" />
        </mxCell>
        <mxCell id="gHh5gTc4rDgr5ecKEyl9-67" value="" style="line;strokeWidth=1;fillColor=none;align=left;verticalAlign=middle;spacingTop=-1;spacingLeft=3;spacingRight=3;rotatable=0;labelPosition=right;points=[];portConstraint=eastwest;strokeColor=inherit;" parent="gHh5gTc4rDgr5ecKEyl9-65" vertex="1">
          <mxGeometry y="32" width="230" height="8" as="geometry" />
        </mxCell>
        <mxCell id="gHh5gTc4rDgr5ecKEyl9-98" value="+ produce() -&amp;gt; (Resource, int)" style="text;strokeColor=none;fillColor=none;align=left;verticalAlign=top;spacingLeft=4;spacingRight=4;overflow=hidden;rotatable=0;points=[[0,0.5],[1,0.5]];portConstraint=eastwest;whiteSpace=wrap;html=1;" parent="gHh5gTc4rDgr5ecKEyl9-65" vertex="1">
          <mxGeometry y="40" width="230" height="26" as="geometry" />
        </mxCell>
        <mxCell id="gHh5gTc4rDgr5ecKEyl9-78" value="" style="edgeStyle=orthogonalEdgeStyle;rounded=0;orthogonalLoop=1;jettySize=auto;html=1;endArrow=none;endFill=0;startArrow=classic;startFill=1;" parent="1" source="gHh5gTc4rDgr5ecKEyl9-70" target="gHh5gTc4rDgr5ecKEyl9-74" edge="1">
          <mxGeometry relative="1" as="geometry">
            <Array as="points">
              <mxPoint x="1420" y="126" />
              <mxPoint x="1420" y="207" />
            </Array>
          </mxGeometry>
        </mxCell>
        <mxCell id="gHh5gTc4rDgr5ecKEyl9-70" value="&lt;div&gt;Resource&lt;/div&gt;&lt;div&gt;&lt;font style=&quot;font-size: 10px;&quot;&gt;&lt;i&gt;Abstract Class&lt;/i&gt;&lt;/font&gt;&lt;/div&gt;" style="swimlane;fontStyle=1;align=center;verticalAlign=top;childLayout=stackLayout;horizontal=1;startSize=42;horizontalStack=0;resizeParent=1;resizeParentMax=0;resizeLast=0;collapsible=1;marginBottom=0;whiteSpace=wrap;html=1;fillColor=#f8cecc;gradientColor=#ea6b66;strokeColor=#b85450;" parent="1" vertex="1">
          <mxGeometry x="1200" y="75" width="160" height="76" as="geometry" />
        </mxCell>
        <mxCell id="gHh5gTc4rDgr5ecKEyl9-71" value="- amount : int" style="text;strokeColor=none;fillColor=none;align=left;verticalAlign=top;spacingLeft=4;spacingRight=4;overflow=hidden;rotatable=0;points=[[0,0.5],[1,0.5]];portConstraint=eastwest;whiteSpace=wrap;html=1;fontColor=light-dark(#00FF00,#00FF00);" parent="gHh5gTc4rDgr5ecKEyl9-70" vertex="1">
          <mxGeometry y="42" width="160" height="26" as="geometry" />
        </mxCell>
        <mxCell id="gHh5gTc4rDgr5ecKEyl9-72" value="" style="line;strokeWidth=1;fillColor=none;align=left;verticalAlign=middle;spacingTop=-1;spacingLeft=3;spacingRight=3;rotatable=0;labelPosition=right;points=[];portConstraint=eastwest;strokeColor=inherit;" parent="gHh5gTc4rDgr5ecKEyl9-70" vertex="1">
          <mxGeometry y="68" width="160" height="8" as="geometry" />
        </mxCell>
        <mxCell id="gHh5gTc4rDgr5ecKEyl9-74" value="Water" style="swimlane;fontStyle=1;align=center;verticalAlign=top;childLayout=stackLayout;horizontal=1;startSize=26;horizontalStack=0;resizeParent=1;resizeParentMax=0;resizeLast=0;collapsible=1;marginBottom=0;whiteSpace=wrap;html=1;fillColor=#f8cecc;gradientColor=#ea6b66;strokeColor=#b85450;" parent="1" vertex="1">
          <mxGeometry x="1460" y="177" width="160" height="34" as="geometry" />
        </mxCell>
        <mxCell id="gHh5gTc4rDgr5ecKEyl9-76" value="" style="line;strokeWidth=1;fillColor=none;align=left;verticalAlign=middle;spacingTop=-1;spacingLeft=3;spacingRight=3;rotatable=0;labelPosition=right;points=[];portConstraint=eastwest;strokeColor=inherit;" parent="gHh5gTc4rDgr5ecKEyl9-74" vertex="1">
          <mxGeometry y="26" width="160" height="8" as="geometry" />
        </mxCell>
        <mxCell id="gHh5gTc4rDgr5ecKEyl9-87" style="edgeStyle=orthogonalEdgeStyle;rounded=0;orthogonalLoop=1;jettySize=auto;html=1;" parent="1" source="gHh5gTc4rDgr5ecKEyl9-79" target="gHh5gTc4rDgr5ecKEyl9-70" edge="1">
          <mxGeometry relative="1" as="geometry">
            <Array as="points">
              <mxPoint x="1320" y="126" />
              <mxPoint x="1320" y="126" />
            </Array>
          </mxGeometry>
        </mxCell>
        <mxCell id="gHh5gTc4rDgr5ecKEyl9-79" value="Electricity" style="swimlane;fontStyle=1;align=center;verticalAlign=top;childLayout=stackLayout;horizontal=1;startSize=26;horizontalStack=0;resizeParent=1;resizeParentMax=0;resizeLast=0;collapsible=1;marginBottom=0;whiteSpace=wrap;html=1;fillColor=#f8cecc;gradientColor=#ea6b66;strokeColor=#b85450;" parent="1" vertex="1">
          <mxGeometry x="1460" y="110" width="160" height="34" as="geometry" />
        </mxCell>
        <mxCell id="gHh5gTc4rDgr5ecKEyl9-81" value="" style="line;strokeWidth=1;fillColor=none;align=left;verticalAlign=middle;spacingTop=-1;spacingLeft=3;spacingRight=3;rotatable=0;labelPosition=right;points=[];portConstraint=eastwest;strokeColor=inherit;" parent="gHh5gTc4rDgr5ecKEyl9-79" vertex="1">
          <mxGeometry y="26" width="160" height="8" as="geometry" />
        </mxCell>
        <mxCell id="gHh5gTc4rDgr5ecKEyl9-88" style="edgeStyle=orthogonalEdgeStyle;rounded=0;orthogonalLoop=1;jettySize=auto;html=1;" parent="1" source="gHh5gTc4rDgr5ecKEyl9-83" target="gHh5gTc4rDgr5ecKEyl9-70" edge="1">
          <mxGeometry relative="1" as="geometry">
            <Array as="points">
              <mxPoint x="1420" y="45" />
              <mxPoint x="1420" y="126" />
            </Array>
          </mxGeometry>
        </mxCell>
        <mxCell id="gHh5gTc4rDgr5ecKEyl9-83" value="Food" style="swimlane;fontStyle=1;align=center;verticalAlign=top;childLayout=stackLayout;horizontal=1;startSize=26;horizontalStack=0;resizeParent=1;resizeParentMax=0;resizeLast=0;collapsible=1;marginBottom=0;whiteSpace=wrap;html=1;fillColor=#f8cecc;gradientColor=#ea6b66;strokeColor=#b85450;" parent="1" vertex="1">
          <mxGeometry x="1460" y="15" width="160" height="34" as="geometry" />
        </mxCell>
        <mxCell id="gHh5gTc4rDgr5ecKEyl9-85" value="" style="line;strokeWidth=1;fillColor=none;align=left;verticalAlign=middle;spacingTop=-1;spacingLeft=3;spacingRight=3;rotatable=0;labelPosition=right;points=[];portConstraint=eastwest;strokeColor=inherit;" parent="gHh5gTc4rDgr5ecKEyl9-83" vertex="1">
          <mxGeometry y="26" width="160" height="8" as="geometry" />
        </mxCell>
        <mxCell id="p-D4rso45VV0s9aIk9N6-4" style="edgeStyle=orthogonalEdgeStyle;rounded=0;orthogonalLoop=1;jettySize=auto;html=1;" parent="1" source="gHh5gTc4rDgr5ecKEyl9-89" target="gHh5gTc4rDgr5ecKEyl9-32" edge="1">
          <mxGeometry relative="1" as="geometry">
            <Array as="points">
              <mxPoint x="1365" y="983" />
            </Array>
          </mxGeometry>
        </mxCell>
        <mxCell id="gHh5gTc4rDgr5ecKEyl9-89" value="Water Facility" style="swimlane;fontStyle=1;align=center;verticalAlign=top;childLayout=stackLayout;horizontal=1;startSize=32;horizontalStack=0;resizeParent=1;resizeParentMax=0;resizeLast=0;collapsible=1;marginBottom=0;whiteSpace=wrap;html=1;fillColor=#dae8fc;strokeColor=#6c8ebf;gradientColor=#7ea6e0;" parent="1" vertex="1">
          <mxGeometry x="1400" y="950" width="220" height="66" as="geometry" />
        </mxCell>
        <mxCell id="gHh5gTc4rDgr5ecKEyl9-90" value="" style="line;strokeWidth=1;fillColor=none;align=left;verticalAlign=middle;spacingTop=-1;spacingLeft=3;spacingRight=3;rotatable=0;labelPosition=right;points=[];portConstraint=eastwest;strokeColor=inherit;" parent="gHh5gTc4rDgr5ecKEyl9-89" vertex="1">
          <mxGeometry y="32" width="220" height="8" as="geometry" />
        </mxCell>
        <mxCell id="gHh5gTc4rDgr5ecKEyl9-99" value="+ produce() -&amp;gt; (Resource, int)" style="text;strokeColor=none;fillColor=none;align=left;verticalAlign=top;spacingLeft=4;spacingRight=4;overflow=hidden;rotatable=0;points=[[0,0.5],[1,0.5]];portConstraint=eastwest;whiteSpace=wrap;html=1;" parent="gHh5gTc4rDgr5ecKEyl9-89" vertex="1">
          <mxGeometry y="40" width="220" height="26" as="geometry" />
        </mxCell>
        <mxCell id="p-D4rso45VV0s9aIk9N6-3" style="edgeStyle=orthogonalEdgeStyle;rounded=0;orthogonalLoop=1;jettySize=auto;html=1;" parent="1" source="gHh5gTc4rDgr5ecKEyl9-95" target="gHh5gTc4rDgr5ecKEyl9-32" edge="1">
          <mxGeometry relative="1" as="geometry">
            <Array as="points">
              <mxPoint x="1365" y="893" />
            </Array>
          </mxGeometry>
        </mxCell>
        <mxCell id="gHh5gTc4rDgr5ecKEyl9-95" value="Food Factory" style="swimlane;fontStyle=1;align=center;verticalAlign=top;childLayout=stackLayout;horizontal=1;startSize=32;horizontalStack=0;resizeParent=1;resizeParentMax=0;resizeLast=0;collapsible=1;marginBottom=0;whiteSpace=wrap;html=1;fillColor=#dae8fc;strokeColor=#6c8ebf;gradientColor=#7ea6e0;" parent="1" vertex="1">
          <mxGeometry x="1400" y="860" width="220" height="66" as="geometry" />
        </mxCell>
        <mxCell id="gHh5gTc4rDgr5ecKEyl9-96" value="" style="line;strokeWidth=1;fillColor=none;align=left;verticalAlign=middle;spacingTop=-1;spacingLeft=3;spacingRight=3;rotatable=0;labelPosition=right;points=[];portConstraint=eastwest;strokeColor=inherit;" parent="gHh5gTc4rDgr5ecKEyl9-95" vertex="1">
          <mxGeometry y="32" width="220" height="8" as="geometry" />
        </mxCell>
        <mxCell id="gHh5gTc4rDgr5ecKEyl9-100" value="+ produce() -&amp;gt; (Resource, int)" style="text;strokeColor=none;fillColor=none;align=left;verticalAlign=top;spacingLeft=4;spacingRight=4;overflow=hidden;rotatable=0;points=[[0,0.5],[1,0.5]];portConstraint=eastwest;whiteSpace=wrap;html=1;" parent="gHh5gTc4rDgr5ecKEyl9-95" vertex="1">
          <mxGeometry y="40" width="220" height="26" as="geometry" />
        </mxCell>
        <mxCell id="gHh5gTc4rDgr5ecKEyl9-117" value="&lt;div&gt;Profession&lt;/div&gt;&lt;div&gt;List or Enum&lt;/div&gt;" style="swimlane;fontStyle=0;childLayout=stackLayout;horizontal=1;startSize=35;horizontalStack=0;resizeParent=1;resizeParentMax=0;resizeLast=0;collapsible=1;marginBottom=0;whiteSpace=wrap;html=1;fillColor=#d5e8d4;gradientColor=#97d077;strokeColor=#82b366;" parent="1" vertex="1">
          <mxGeometry x="1445" y="540" width="140" height="155" as="geometry" />
        </mxCell>
        <mxCell id="gHh5gTc4rDgr5ecKEyl9-118" value="Power Plant" style="text;strokeColor=none;fillColor=none;align=left;verticalAlign=middle;spacingLeft=4;spacingRight=4;overflow=hidden;points=[[0,0.5],[1,0.5]];portConstraint=eastwest;rotatable=0;whiteSpace=wrap;html=1;" parent="gHh5gTc4rDgr5ecKEyl9-117" vertex="1">
          <mxGeometry y="35" width="140" height="30" as="geometry" />
        </mxCell>
        <mxCell id="gHh5gTc4rDgr5ecKEyl9-119" value="Food Factory" style="text;strokeColor=none;fillColor=none;align=left;verticalAlign=middle;spacingLeft=4;spacingRight=4;overflow=hidden;points=[[0,0.5],[1,0.5]];portConstraint=eastwest;rotatable=0;whiteSpace=wrap;html=1;" parent="gHh5gTc4rDgr5ecKEyl9-117" vertex="1">
          <mxGeometry y="65" width="140" height="30" as="geometry" />
        </mxCell>
        <mxCell id="gHh5gTc4rDgr5ecKEyl9-120" value="Water Facility" style="text;strokeColor=none;fillColor=none;align=left;verticalAlign=middle;spacingLeft=4;spacingRight=4;overflow=hidden;points=[[0,0.5],[1,0.5]];portConstraint=eastwest;rotatable=0;whiteSpace=wrap;html=1;" parent="gHh5gTc4rDgr5ecKEyl9-117" vertex="1">
          <mxGeometry y="95" width="140" height="30" as="geometry" />
        </mxCell>
        <mxCell id="mZAiKF3BIAbm9ngjPxyb-13" value="Jobless" style="text;strokeColor=none;fillColor=none;align=left;verticalAlign=middle;spacingLeft=4;spacingRight=4;overflow=hidden;points=[[0,0.5],[1,0.5]];portConstraint=eastwest;rotatable=0;whiteSpace=wrap;html=1;" vertex="1" parent="gHh5gTc4rDgr5ecKEyl9-117">
          <mxGeometry y="125" width="140" height="30" as="geometry" />
        </mxCell>
        <mxCell id="gHh5gTc4rDgr5ecKEyl9-121" style="edgeStyle=orthogonalEdgeStyle;rounded=0;orthogonalLoop=1;jettySize=auto;html=1;" parent="1" source="mZAiKF3BIAbm9ngjPxyb-11" target="gHh5gTc4rDgr5ecKEyl9-117" edge="1">
          <mxGeometry relative="1" as="geometry">
            <mxPoint x="1390" y="515" as="sourcePoint" />
            <Array as="points">
              <mxPoint x="1630" y="479" />
              <mxPoint x="1630" y="618" />
            </Array>
          </mxGeometry>
        </mxCell>
        <mxCell id="gHh5gTc4rDgr5ecKEyl9-122" value="&lt;div&gt;Event&lt;/div&gt;&lt;div&gt;&lt;font style=&quot;font-size: 10px;&quot;&gt;&lt;i&gt;Static Class&lt;/i&gt;&lt;/font&gt;&lt;/div&gt;" style="swimlane;fontStyle=1;align=center;verticalAlign=top;childLayout=stackLayout;horizontal=1;startSize=42;horizontalStack=0;resizeParent=1;resizeParentMax=0;resizeLast=0;collapsible=1;marginBottom=0;whiteSpace=wrap;html=1;fillColor=#e6d0de;gradientColor=#d5739d;strokeColor=#996185;" parent="1" vertex="1">
          <mxGeometry x="1200" y="220" width="160" height="154" as="geometry" />
        </mxCell>
        <mxCell id="gHh5gTc4rDgr5ecKEyl9-124" value="" style="line;strokeWidth=1;fillColor=none;align=left;verticalAlign=middle;spacingTop=-1;spacingLeft=3;spacingRight=3;rotatable=0;labelPosition=right;points=[];portConstraint=eastwest;strokeColor=inherit;" parent="gHh5gTc4rDgr5ecKEyl9-122" vertex="1">
          <mxGeometry y="42" width="160" height="8" as="geometry" />
        </mxCell>
        <mxCell id="gHh5gTc4rDgr5ecKEyl9-125" value="&lt;i&gt;&lt;font style=&quot;font-size: 10px;&quot;&gt;@static&lt;/font&gt;&lt;/i&gt;&amp;nbsp;fire() -&amp;gt; void" style="text;strokeColor=none;fillColor=none;align=left;verticalAlign=top;spacingLeft=4;spacingRight=4;overflow=hidden;rotatable=0;points=[[0,0.5],[1,0.5]];portConstraint=eastwest;whiteSpace=wrap;html=1;" parent="gHh5gTc4rDgr5ecKEyl9-122" vertex="1">
          <mxGeometry y="50" width="160" height="26" as="geometry" />
        </mxCell>
        <mxCell id="gHh5gTc4rDgr5ecKEyl9-130" value="&lt;i&gt;&lt;font style=&quot;font-size: 10px;&quot;&gt;@static&lt;/font&gt;&lt;/i&gt;&amp;nbsp;flood() -&amp;gt; void" style="text;strokeColor=none;fillColor=none;align=left;verticalAlign=top;spacingLeft=4;spacingRight=4;overflow=hidden;rotatable=0;points=[[0,0.5],[1,0.5]];portConstraint=eastwest;whiteSpace=wrap;html=1;" parent="gHh5gTc4rDgr5ecKEyl9-122" vertex="1">
          <mxGeometry y="76" width="160" height="26" as="geometry" />
        </mxCell>
        <mxCell id="gHh5gTc4rDgr5ecKEyl9-131" value="&lt;i&gt;&lt;font style=&quot;font-size: 10px;&quot;&gt;@static&lt;/font&gt;&lt;/i&gt;&amp;nbsp;strike() -&amp;gt; void" style="text;strokeColor=none;fillColor=none;align=left;verticalAlign=top;spacingLeft=4;spacingRight=4;overflow=hidden;rotatable=0;points=[[0,0.5],[1,0.5]];portConstraint=eastwest;whiteSpace=wrap;html=1;" parent="gHh5gTc4rDgr5ecKEyl9-122" vertex="1">
          <mxGeometry y="102" width="160" height="26" as="geometry" />
        </mxCell>
        <mxCell id="gHh5gTc4rDgr5ecKEyl9-132" value="&lt;i&gt;&lt;font style=&quot;font-size: 10px;&quot;&gt;@static&lt;/font&gt;&lt;/i&gt;&amp;nbsp;festival() -&amp;gt; void" style="text;strokeColor=none;fillColor=none;align=left;verticalAlign=top;spacingLeft=4;spacingRight=4;overflow=hidden;rotatable=0;points=[[0,0.5],[1,0.5]];portConstraint=eastwest;whiteSpace=wrap;html=1;" parent="gHh5gTc4rDgr5ecKEyl9-122" vertex="1">
          <mxGeometry y="128" width="160" height="26" as="geometry" />
        </mxCell>
        <mxCell id="mZAiKF3BIAbm9ngjPxyb-1" value="Work" style="swimlane;fontStyle=1;align=center;verticalAlign=top;childLayout=stackLayout;horizontal=1;startSize=30;horizontalStack=0;resizeParent=1;resizeParentMax=0;resizeLast=0;collapsible=1;marginBottom=0;whiteSpace=wrap;html=1;fillColor=#d5e8d4;gradientColor=#97d077;strokeColor=#82b366;" vertex="1" parent="1">
          <mxGeometry x="1430" y="410" width="190" height="116" as="geometry" />
        </mxCell>
        <mxCell id="mZAiKF3BIAbm9ngjPxyb-2" value="+ off_days : list [int]" style="text;strokeColor=none;fillColor=none;align=left;verticalAlign=top;spacingLeft=4;spacingRight=4;overflow=hidden;rotatable=0;points=[[0,0.5],[1,0.5]];portConstraint=eastwest;whiteSpace=wrap;html=1;fontColor=light-dark(#99CCFF,#99CCFF);" vertex="1" parent="mZAiKF3BIAbm9ngjPxyb-1">
          <mxGeometry y="30" width="190" height="26" as="geometry" />
        </mxCell>
        <mxCell id="mZAiKF3BIAbm9ngjPxyb-11" value="- profession : Enum" style="text;strokeColor=none;fillColor=none;align=left;verticalAlign=top;spacingLeft=4;spacingRight=4;overflow=hidden;rotatable=0;points=[[0,0.5],[1,0.5]];portConstraint=eastwest;whiteSpace=wrap;html=1;fontColor=light-dark(#00FF00,#00FF00);" vertex="1" parent="mZAiKF3BIAbm9ngjPxyb-1">
          <mxGeometry y="56" width="190" height="26" as="geometry" />
        </mxCell>
        <mxCell id="gHh5gTc4rDgr5ecKEyl9-113" value="- is_day_worker : bool" style="text;strokeColor=none;fillColor=none;align=left;verticalAlign=top;spacingLeft=4;spacingRight=4;overflow=hidden;rotatable=0;points=[[0,0.5],[1,0.5]];portConstraint=eastwest;whiteSpace=wrap;html=1;fontColor=light-dark(#99CCFF,#99CCFF);" parent="mZAiKF3BIAbm9ngjPxyb-1" vertex="1">
          <mxGeometry y="82" width="190" height="26" as="geometry" />
        </mxCell>
        <mxCell id="mZAiKF3BIAbm9ngjPxyb-7" value="" style="line;strokeWidth=1;fillColor=none;align=left;verticalAlign=middle;spacingTop=-1;spacingLeft=3;spacingRight=3;rotatable=0;labelPosition=right;points=[];portConstraint=eastwest;strokeColor=inherit;" vertex="1" parent="mZAiKF3BIAbm9ngjPxyb-1">
          <mxGeometry y="108" width="190" height="8" as="geometry" />
        </mxCell>
      </root>
    </mxGraphModel>
  </diagram>
  <diagram id="uIM3n713dFR9sUPXvT3w" name="Page-2">
    <mxGraphModel dx="1426" dy="779" grid="1" gridSize="10" guides="1" tooltips="1" connect="1" arrows="1" fold="1" page="1" pageScale="1" pageWidth="827" pageHeight="1169" math="0" shadow="0">
      <root>
        <mxCell id="0" />
        <mxCell id="1" parent="0" />
        <mxCell id="uslzZDYMRemGJdSSj4Y8-6" value="Roles" style="shape=table;startSize=30;container=1;collapsible=0;childLayout=tableLayout;strokeColor=default;fontSize=16;" vertex="1" parent="1">
          <mxGeometry x="104" y="140" width="620" height="360" as="geometry" />
        </mxCell>
        <mxCell id="uslzZDYMRemGJdSSj4Y8-7" value="" style="shape=tableRow;horizontal=0;startSize=0;swimlaneHead=0;swimlaneBody=0;strokeColor=inherit;top=0;left=0;bottom=0;right=0;collapsible=0;dropTarget=0;fillColor=none;points=[[0,0.5],[1,0.5]];portConstraint=eastwest;fontSize=16;" vertex="1" parent="uslzZDYMRemGJdSSj4Y8-6">
          <mxGeometry y="30" width="620" height="40" as="geometry" />
        </mxCell>
        <mxCell id="uslzZDYMRemGJdSSj4Y8-8" value="Branch" style="shape=partialRectangle;html=1;whiteSpace=wrap;connectable=0;strokeColor=inherit;overflow=hidden;fillColor=none;top=0;left=0;bottom=0;right=0;pointerEvents=1;fontSize=16;" vertex="1" parent="uslzZDYMRemGJdSSj4Y8-7">
          <mxGeometry width="136" height="40" as="geometry">
            <mxRectangle width="136" height="40" as="alternateBounds" />
          </mxGeometry>
        </mxCell>
        <mxCell id="uslzZDYMRemGJdSSj4Y8-9" value="Resp." style="shape=partialRectangle;html=1;whiteSpace=wrap;connectable=0;strokeColor=inherit;overflow=hidden;fillColor=none;top=0;left=0;bottom=0;right=0;pointerEvents=1;fontSize=16;" vertex="1" parent="uslzZDYMRemGJdSSj4Y8-7">
          <mxGeometry x="136" width="144" height="40" as="geometry">
            <mxRectangle width="144" height="40" as="alternateBounds" />
          </mxGeometry>
        </mxCell>
        <mxCell id="uslzZDYMRemGJdSSj4Y8-10" value="Notes" style="shape=partialRectangle;html=1;whiteSpace=wrap;connectable=0;strokeColor=inherit;overflow=hidden;fillColor=none;top=0;left=0;bottom=0;right=0;pointerEvents=1;fontSize=16;" vertex="1" parent="uslzZDYMRemGJdSSj4Y8-7">
          <mxGeometry x="280" width="340" height="40" as="geometry">
            <mxRectangle width="340" height="40" as="alternateBounds" />
          </mxGeometry>
        </mxCell>
        <mxCell id="uslzZDYMRemGJdSSj4Y8-11" value="" style="shape=tableRow;horizontal=0;startSize=0;swimlaneHead=0;swimlaneBody=0;strokeColor=inherit;top=0;left=0;bottom=0;right=0;collapsible=0;dropTarget=0;fillColor=none;points=[[0,0.5],[1,0.5]];portConstraint=eastwest;fontSize=16;" vertex="1" parent="uslzZDYMRemGJdSSj4Y8-6">
          <mxGeometry y="70" width="620" height="40" as="geometry" />
        </mxCell>
        <mxCell id="uslzZDYMRemGJdSSj4Y8-12" value="Facility" style="shape=partialRectangle;html=1;whiteSpace=wrap;connectable=0;strokeColor=#6c8ebf;overflow=hidden;fillColor=#dae8fc;top=0;left=0;bottom=0;right=0;pointerEvents=1;fontSize=16;gradientColor=#7ea6e0;" vertex="1" parent="uslzZDYMRemGJdSSj4Y8-11">
          <mxGeometry width="136" height="40" as="geometry">
            <mxRectangle width="136" height="40" as="alternateBounds" />
          </mxGeometry>
        </mxCell>
        <mxCell id="uslzZDYMRemGJdSSj4Y8-13" value="Joachim" style="shape=partialRectangle;html=1;whiteSpace=wrap;connectable=0;strokeColor=inherit;overflow=hidden;fillColor=none;top=0;left=0;bottom=0;right=0;pointerEvents=1;fontSize=16;" vertex="1" parent="uslzZDYMRemGJdSSj4Y8-11">
          <mxGeometry x="136" width="144" height="40" as="geometry">
            <mxRectangle width="144" height="40" as="alternateBounds" />
          </mxGeometry>
        </mxCell>
        <mxCell id="uslzZDYMRemGJdSSj4Y8-14" value="" style="shape=partialRectangle;html=1;whiteSpace=wrap;connectable=0;strokeColor=inherit;overflow=hidden;fillColor=none;top=0;left=0;bottom=0;right=0;pointerEvents=1;fontSize=16;" vertex="1" parent="uslzZDYMRemGJdSSj4Y8-11">
          <mxGeometry x="280" width="340" height="40" as="geometry">
            <mxRectangle width="340" height="40" as="alternateBounds" />
          </mxGeometry>
        </mxCell>
        <mxCell id="uslzZDYMRemGJdSSj4Y8-15" value="" style="shape=tableRow;horizontal=0;startSize=0;swimlaneHead=0;swimlaneBody=0;strokeColor=inherit;top=0;left=0;bottom=0;right=0;collapsible=0;dropTarget=0;fillColor=none;points=[[0,0.5],[1,0.5]];portConstraint=eastwest;fontSize=16;" vertex="1" parent="uslzZDYMRemGJdSSj4Y8-6">
          <mxGeometry y="110" width="620" height="40" as="geometry" />
        </mxCell>
        <mxCell id="uslzZDYMRemGJdSSj4Y8-16" value="City" style="shape=partialRectangle;html=1;whiteSpace=wrap;connectable=0;strokeColor=#d79b00;overflow=hidden;fillColor=#ffcd28;top=0;left=0;bottom=0;right=0;pointerEvents=1;fontSize=16;gradientColor=#ffa500;" vertex="1" parent="uslzZDYMRemGJdSSj4Y8-15">
          <mxGeometry width="136" height="40" as="geometry">
            <mxRectangle width="136" height="40" as="alternateBounds" />
          </mxGeometry>
        </mxCell>
        <mxCell id="uslzZDYMRemGJdSSj4Y8-17" value="Sacha" style="shape=partialRectangle;html=1;whiteSpace=wrap;connectable=0;strokeColor=inherit;overflow=hidden;fillColor=none;top=0;left=0;bottom=0;right=0;pointerEvents=1;fontSize=16;" vertex="1" parent="uslzZDYMRemGJdSSj4Y8-15">
          <mxGeometry x="136" width="144" height="40" as="geometry">
            <mxRectangle width="144" height="40" as="alternateBounds" />
          </mxGeometry>
        </mxCell>
        <mxCell id="uslzZDYMRemGJdSSj4Y8-18" value="" style="shape=partialRectangle;html=1;whiteSpace=wrap;connectable=0;strokeColor=inherit;overflow=hidden;fillColor=none;top=0;left=0;bottom=0;right=0;pointerEvents=1;fontSize=16;" vertex="1" parent="uslzZDYMRemGJdSSj4Y8-15">
          <mxGeometry x="280" width="340" height="40" as="geometry">
            <mxRectangle width="340" height="40" as="alternateBounds" />
          </mxGeometry>
        </mxCell>
        <mxCell id="g5SRHz_tzQynHX5mYguK-1" value="" style="shape=tableRow;horizontal=0;startSize=0;swimlaneHead=0;swimlaneBody=0;strokeColor=inherit;top=0;left=0;bottom=0;right=0;collapsible=0;dropTarget=0;fillColor=none;points=[[0,0.5],[1,0.5]];portConstraint=eastwest;fontSize=16;" vertex="1" parent="uslzZDYMRemGJdSSj4Y8-6">
          <mxGeometry y="150" width="620" height="47" as="geometry" />
        </mxCell>
        <mxCell id="g5SRHz_tzQynHX5mYguK-2" value="Citizen" style="shape=partialRectangle;html=1;whiteSpace=wrap;connectable=0;strokeColor=#82b366;overflow=hidden;fillColor=#d5e8d4;top=0;left=0;bottom=0;right=0;pointerEvents=1;fontSize=16;gradientColor=#97d077;" vertex="1" parent="g5SRHz_tzQynHX5mYguK-1">
          <mxGeometry width="136" height="47" as="geometry">
            <mxRectangle width="136" height="47" as="alternateBounds" />
          </mxGeometry>
        </mxCell>
        <mxCell id="g5SRHz_tzQynHX5mYguK-3" value="Elena" style="shape=partialRectangle;html=1;whiteSpace=wrap;connectable=0;strokeColor=inherit;overflow=hidden;fillColor=none;top=0;left=0;bottom=0;right=0;pointerEvents=1;fontSize=16;" vertex="1" parent="g5SRHz_tzQynHX5mYguK-1">
          <mxGeometry x="136" width="144" height="47" as="geometry">
            <mxRectangle width="144" height="47" as="alternateBounds" />
          </mxGeometry>
        </mxCell>
        <mxCell id="g5SRHz_tzQynHX5mYguK-4" value="" style="shape=partialRectangle;html=1;whiteSpace=wrap;connectable=0;strokeColor=inherit;overflow=hidden;fillColor=none;top=0;left=0;bottom=0;right=0;pointerEvents=1;fontSize=16;" vertex="1" parent="g5SRHz_tzQynHX5mYguK-1">
          <mxGeometry x="280" width="340" height="47" as="geometry">
            <mxRectangle width="340" height="47" as="alternateBounds" />
          </mxGeometry>
        </mxCell>
        <mxCell id="g5SRHz_tzQynHX5mYguK-5" value="" style="shape=tableRow;horizontal=0;startSize=0;swimlaneHead=0;swimlaneBody=0;strokeColor=inherit;top=0;left=0;bottom=0;right=0;collapsible=0;dropTarget=0;fillColor=none;points=[[0,0.5],[1,0.5]];portConstraint=eastwest;fontSize=16;" vertex="1" parent="uslzZDYMRemGJdSSj4Y8-6">
          <mxGeometry y="197" width="620" height="40" as="geometry" />
        </mxCell>
        <mxCell id="g5SRHz_tzQynHX5mYguK-6" value="Events" style="shape=partialRectangle;html=1;whiteSpace=wrap;connectable=0;strokeColor=#996185;overflow=hidden;fillColor=#e6d0de;top=0;left=0;bottom=0;right=0;pointerEvents=1;fontSize=16;gradientColor=#d5739d;" vertex="1" parent="g5SRHz_tzQynHX5mYguK-5">
          <mxGeometry width="136" height="40" as="geometry">
            <mxRectangle width="136" height="40" as="alternateBounds" />
          </mxGeometry>
        </mxCell>
        <mxCell id="g5SRHz_tzQynHX5mYguK-7" value="" style="shape=partialRectangle;html=1;whiteSpace=wrap;connectable=0;strokeColor=inherit;overflow=hidden;fillColor=none;top=0;left=0;bottom=0;right=0;pointerEvents=1;fontSize=16;" vertex="1" parent="g5SRHz_tzQynHX5mYguK-5">
          <mxGeometry x="136" width="144" height="40" as="geometry">
            <mxRectangle width="144" height="40" as="alternateBounds" />
          </mxGeometry>
        </mxCell>
        <mxCell id="g5SRHz_tzQynHX5mYguK-8" value="Definir les regles métiers" style="shape=partialRectangle;html=1;whiteSpace=wrap;connectable=0;strokeColor=inherit;overflow=hidden;fillColor=none;top=0;left=0;bottom=0;right=0;pointerEvents=1;fontSize=16;" vertex="1" parent="g5SRHz_tzQynHX5mYguK-5">
          <mxGeometry x="280" width="340" height="40" as="geometry">
            <mxRectangle width="340" height="40" as="alternateBounds" />
          </mxGeometry>
        </mxCell>
        <mxCell id="g5SRHz_tzQynHX5mYguK-9" value="" style="shape=tableRow;horizontal=0;startSize=0;swimlaneHead=0;swimlaneBody=0;strokeColor=inherit;top=0;left=0;bottom=0;right=0;collapsible=0;dropTarget=0;fillColor=none;points=[[0,0.5],[1,0.5]];portConstraint=eastwest;fontSize=16;" vertex="1" parent="uslzZDYMRemGJdSSj4Y8-6">
          <mxGeometry y="237" width="620" height="43" as="geometry" />
        </mxCell>
        <mxCell id="g5SRHz_tzQynHX5mYguK-10" value="Menu" style="shape=partialRectangle;html=1;whiteSpace=wrap;connectable=0;strokeColor=#666666;overflow=hidden;fillColor=#f5f5f5;top=0;left=0;bottom=0;right=0;pointerEvents=1;fontSize=16;gradientColor=#b3b3b3;" vertex="1" parent="g5SRHz_tzQynHX5mYguK-9">
          <mxGeometry width="136" height="43" as="geometry">
            <mxRectangle width="136" height="43" as="alternateBounds" />
          </mxGeometry>
        </mxCell>
        <mxCell id="g5SRHz_tzQynHX5mYguK-11" value="Vincent" style="shape=partialRectangle;html=1;whiteSpace=wrap;connectable=0;strokeColor=inherit;overflow=hidden;fillColor=none;top=0;left=0;bottom=0;right=0;pointerEvents=1;fontSize=16;" vertex="1" parent="g5SRHz_tzQynHX5mYguK-9">
          <mxGeometry x="136" width="144" height="43" as="geometry">
            <mxRectangle width="144" height="43" as="alternateBounds" />
          </mxGeometry>
        </mxCell>
        <mxCell id="g5SRHz_tzQynHX5mYguK-12" value="" style="shape=partialRectangle;html=1;whiteSpace=wrap;connectable=0;strokeColor=inherit;overflow=hidden;fillColor=none;top=0;left=0;bottom=0;right=0;pointerEvents=1;fontSize=16;" vertex="1" parent="g5SRHz_tzQynHX5mYguK-9">
          <mxGeometry x="280" width="340" height="43" as="geometry">
            <mxRectangle width="340" height="43" as="alternateBounds" />
          </mxGeometry>
        </mxCell>
        <mxCell id="g5SRHz_tzQynHX5mYguK-13" value="" style="shape=tableRow;horizontal=0;startSize=0;swimlaneHead=0;swimlaneBody=0;strokeColor=inherit;top=0;left=0;bottom=0;right=0;collapsible=0;dropTarget=0;fillColor=none;points=[[0,0.5],[1,0.5]];portConstraint=eastwest;fontSize=16;" vertex="1" parent="uslzZDYMRemGJdSSj4Y8-6">
          <mxGeometry y="280" width="620" height="40" as="geometry" />
        </mxCell>
        <mxCell id="g5SRHz_tzQynHX5mYguK-14" value="Resource" style="shape=partialRectangle;html=1;whiteSpace=wrap;connectable=0;strokeColor=#b85450;overflow=hidden;fillColor=#f8cecc;top=0;left=0;bottom=0;right=0;pointerEvents=1;fontSize=16;gradientColor=#ea6b66;" vertex="1" parent="g5SRHz_tzQynHX5mYguK-13">
          <mxGeometry width="136" height="40" as="geometry">
            <mxRectangle width="136" height="40" as="alternateBounds" />
          </mxGeometry>
        </mxCell>
        <mxCell id="g5SRHz_tzQynHX5mYguK-15" value="Vincent" style="shape=partialRectangle;html=1;whiteSpace=wrap;connectable=0;strokeColor=inherit;overflow=hidden;fillColor=none;top=0;left=0;bottom=0;right=0;pointerEvents=1;fontSize=16;" vertex="1" parent="g5SRHz_tzQynHX5mYguK-13">
          <mxGeometry x="136" width="144" height="40" as="geometry">
            <mxRectangle width="144" height="40" as="alternateBounds" />
          </mxGeometry>
        </mxCell>
        <mxCell id="g5SRHz_tzQynHX5mYguK-16" value="" style="shape=partialRectangle;html=1;whiteSpace=wrap;connectable=0;strokeColor=inherit;overflow=hidden;fillColor=none;top=0;left=0;bottom=0;right=0;pointerEvents=1;fontSize=16;" vertex="1" parent="g5SRHz_tzQynHX5mYguK-13">
          <mxGeometry x="280" width="340" height="40" as="geometry">
            <mxRectangle width="340" height="40" as="alternateBounds" />
          </mxGeometry>
        </mxCell>
        <mxCell id="g5SRHz_tzQynHX5mYguK-21" value="" style="shape=tableRow;horizontal=0;startSize=0;swimlaneHead=0;swimlaneBody=0;strokeColor=inherit;top=0;left=0;bottom=0;right=0;collapsible=0;dropTarget=0;fillColor=none;points=[[0,0.5],[1,0.5]];portConstraint=eastwest;fontSize=16;" vertex="1" parent="uslzZDYMRemGJdSSj4Y8-6">
          <mxGeometry y="320" width="620" height="40" as="geometry" />
        </mxCell>
        <mxCell id="g5SRHz_tzQynHX5mYguK-22" value="Main" style="shape=partialRectangle;html=1;whiteSpace=wrap;connectable=0;strokeColor=#666666;overflow=hidden;fillColor=#f5f5f5;top=0;left=0;bottom=0;right=0;pointerEvents=1;fontSize=16;gradientColor=#b3b3b3;" vertex="1" parent="g5SRHz_tzQynHX5mYguK-21">
          <mxGeometry width="136" height="40" as="geometry">
            <mxRectangle width="136" height="40" as="alternateBounds" />
          </mxGeometry>
        </mxCell>
        <mxCell id="g5SRHz_tzQynHX5mYguK-23" value="" style="shape=partialRectangle;html=1;whiteSpace=wrap;connectable=0;strokeColor=inherit;overflow=hidden;fillColor=none;top=0;left=0;bottom=0;right=0;pointerEvents=1;fontSize=16;" vertex="1" parent="g5SRHz_tzQynHX5mYguK-21">
          <mxGeometry x="136" width="144" height="40" as="geometry">
            <mxRectangle width="144" height="40" as="alternateBounds" />
          </mxGeometry>
        </mxCell>
        <mxCell id="g5SRHz_tzQynHX5mYguK-24" value="" style="shape=partialRectangle;html=1;whiteSpace=wrap;connectable=0;strokeColor=inherit;overflow=hidden;fillColor=none;top=0;left=0;bottom=0;right=0;pointerEvents=1;fontSize=16;" vertex="1" parent="g5SRHz_tzQynHX5mYguK-21">
          <mxGeometry x="280" width="340" height="40" as="geometry">
            <mxRectangle width="340" height="40" as="alternateBounds" />
          </mxGeometry>
        </mxCell>
        <mxCell id="g5SRHz_tzQynHX5mYguK-17" value="&lt;div&gt;Nom fichier : minuscule (city.py)&lt;/div&gt;" style="text;html=1;align=center;verticalAlign=middle;resizable=0;points=[];autosize=1;strokeColor=none;fillColor=none;" vertex="1" parent="1">
          <mxGeometry x="40" y="610" width="190" height="30" as="geometry" />
        </mxCell>
        <mxCell id="g5SRHz_tzQynHX5mYguK-18" value="Nom class : Majuscule (City)" style="text;html=1;align=center;verticalAlign=middle;resizable=0;points=[];autosize=1;strokeColor=none;fillColor=none;" vertex="1" parent="1">
          <mxGeometry x="40" y="640" width="180" height="30" as="geometry" />
        </mxCell>
        <mxCell id="g5SRHz_tzQynHX5mYguK-20" value="methode : snake_case min" style="text;html=1;align=center;verticalAlign=middle;resizable=0;points=[];autosize=1;strokeColor=none;fillColor=none;" vertex="1" parent="1">
          <mxGeometry x="45" y="670" width="170" height="30" as="geometry" />
        </mxCell>
      </root>
    </mxGraphModel>
  </diagram>
  <diagram id="r6Jbu6kJWwjepVHYDJsd" name="Page-3">
    <mxGraphModel dx="1426" dy="779" grid="1" gridSize="10" guides="1" tooltips="1" connect="1" arrows="1" fold="1" page="1" pageScale="1" pageWidth="827" pageHeight="1169" math="0" shadow="0">
      <root>
        <mxCell id="0" />
        <mxCell id="1" parent="0" />
        <mxCell id="hZipX3X4iWpMDmQYpv_X-34" style="edgeStyle=orthogonalEdgeStyle;rounded=0;orthogonalLoop=1;jettySize=auto;html=1;" edge="1" parent="1" source="hZipX3X4iWpMDmQYpv_X-1" target="hZipX3X4iWpMDmQYpv_X-11">
          <mxGeometry relative="1" as="geometry" />
        </mxCell>
        <mxCell id="hZipX3X4iWpMDmQYpv_X-1" value="Live_day" style="rounded=0;whiteSpace=wrap;html=1;" vertex="1" parent="1">
          <mxGeometry x="40" y="40" width="120" height="60" as="geometry" />
        </mxCell>
        <mxCell id="hZipX3X4iWpMDmQYpv_X-22" value="" style="edgeStyle=orthogonalEdgeStyle;rounded=0;orthogonalLoop=1;jettySize=auto;html=1;" edge="1" parent="1" source="hZipX3X4iWpMDmQYpv_X-4" target="hZipX3X4iWpMDmQYpv_X-23">
          <mxGeometry relative="1" as="geometry">
            <mxPoint x="390" y="100" as="targetPoint" />
          </mxGeometry>
        </mxCell>
        <mxCell id="hZipX3X4iWpMDmQYpv_X-38" style="edgeStyle=orthogonalEdgeStyle;rounded=0;orthogonalLoop=1;jettySize=auto;html=1;" edge="1" parent="1" source="hZipX3X4iWpMDmQYpv_X-4" target="hZipX3X4iWpMDmQYpv_X-9">
          <mxGeometry relative="1" as="geometry" />
        </mxCell>
        <mxCell id="hZipX3X4iWpMDmQYpv_X-4" value="Grow City" style="swimlane;fontStyle=0;childLayout=stackLayout;horizontal=1;startSize=30;horizontalStack=0;resizeParent=1;resizeParentMax=0;resizeLast=0;collapsible=1;marginBottom=0;whiteSpace=wrap;html=1;fillColor=#ffcd28;gradientColor=#ffa500;strokeColor=#d79b00;" vertex="1" parent="1">
          <mxGeometry x="30" y="690" width="140" height="90" as="geometry">
            <mxRectangle x="55" y="150" width="90" height="30" as="alternateBounds" />
          </mxGeometry>
        </mxCell>
        <mxCell id="hZipX3X4iWpMDmQYpv_X-5" value="Grow Citizens" style="text;strokeColor=#82b366;fillColor=#d5e8d4;align=left;verticalAlign=middle;spacingLeft=4;spacingRight=4;overflow=hidden;points=[[0,0.5],[1,0.5]];portConstraint=eastwest;rotatable=0;whiteSpace=wrap;html=1;gradientColor=#97d077;" vertex="1" parent="hZipX3X4iWpMDmQYpv_X-4">
          <mxGeometry y="30" width="140" height="30" as="geometry" />
        </mxCell>
        <mxCell id="hZipX3X4iWpMDmQYpv_X-6" value="Grow Facility" style="text;strokeColor=#6c8ebf;fillColor=#dae8fc;align=left;verticalAlign=middle;spacingLeft=4;spacingRight=4;overflow=hidden;points=[[0,0.5],[1,0.5]];portConstraint=eastwest;rotatable=0;whiteSpace=wrap;html=1;gradientColor=#7ea6e0;" vertex="1" parent="hZipX3X4iWpMDmQYpv_X-4">
          <mxGeometry y="60" width="140" height="30" as="geometry" />
        </mxCell>
        <mxCell id="hZipX3X4iWpMDmQYpv_X-9" value="Update liste facilities &amp;amp; citizens" style="whiteSpace=wrap;html=1;fontStyle=0;startSize=30;horizontal=1;fillColor=#ffcd28;gradientColor=#ffa500;strokeColor=#d79b00;" vertex="1" parent="1">
          <mxGeometry x="40" y="810" width="120" height="60" as="geometry" />
        </mxCell>
        <mxCell id="hZipX3X4iWpMDmQYpv_X-14" style="edgeStyle=orthogonalEdgeStyle;rounded=0;orthogonalLoop=1;jettySize=auto;html=1;" edge="1" parent="1" source="hZipX3X4iWpMDmQYpv_X-11" target="hZipX3X4iWpMDmQYpv_X-13">
          <mxGeometry relative="1" as="geometry" />
        </mxCell>
        <mxCell id="hZipX3X4iWpMDmQYpv_X-11" value="Event" style="whiteSpace=wrap;html=1;fontStyle=0;startSize=30;horizontal=1;fillColor=#f8cecc;gradientColor=#ea6b66;strokeColor=#b85450;" vertex="1" parent="1">
          <mxGeometry x="40" y="170" width="120" height="60" as="geometry" />
        </mxCell>
        <mxCell id="hZipX3X4iWpMDmQYpv_X-35" style="edgeStyle=orthogonalEdgeStyle;rounded=0;orthogonalLoop=1;jettySize=auto;html=1;" edge="1" parent="1" source="hZipX3X4iWpMDmQYpv_X-13" target="hZipX3X4iWpMDmQYpv_X-29">
          <mxGeometry relative="1" as="geometry" />
        </mxCell>
        <mxCell id="hZipX3X4iWpMDmQYpv_X-13" value="Update liste facilities &amp;amp; citizens" style="whiteSpace=wrap;html=1;fontStyle=0;startSize=30;horizontal=1;fillColor=#ffcd28;gradientColor=#ffa500;strokeColor=#d79b00;" vertex="1" parent="1">
          <mxGeometry x="40" y="270" width="120" height="60" as="geometry" />
        </mxCell>
        <mxCell id="hZipX3X4iWpMDmQYpv_X-41" value="" style="edgeStyle=orthogonalEdgeStyle;rounded=0;orthogonalLoop=1;jettySize=auto;html=1;" edge="1" parent="1" source="hZipX3X4iWpMDmQYpv_X-15" target="hZipX3X4iWpMDmQYpv_X-40">
          <mxGeometry relative="1" as="geometry" />
        </mxCell>
        <mxCell id="OSZMAf41h5J0GVBBbzqU-1" style="edgeStyle=orthogonalEdgeStyle;rounded=0;orthogonalLoop=1;jettySize=auto;html=1;" edge="1" parent="1" source="hZipX3X4iWpMDmQYpv_X-15" target="OSZMAf41h5J0GVBBbzqU-2">
          <mxGeometry relative="1" as="geometry">
            <mxPoint x="410" y="590" as="targetPoint" />
          </mxGeometry>
        </mxCell>
        <mxCell id="hZipX3X4iWpMDmQYpv_X-15" value="Facilities : Production" style="whiteSpace=wrap;html=1;fontStyle=0;startSize=30;horizontal=1;fillColor=#dae8fc;gradientColor=#7ea6e0;strokeColor=#6c8ebf;" vertex="1" parent="1">
          <mxGeometry x="40" y="525" width="120" height="60" as="geometry" />
        </mxCell>
        <mxCell id="hZipX3X4iWpMDmQYpv_X-23" value="Grow Citizen" style="swimlane;fontStyle=0;childLayout=stackLayout;horizontal=1;startSize=30;horizontalStack=0;resizeParent=1;resizeParentMax=0;resizeLast=0;collapsible=1;marginBottom=0;whiteSpace=wrap;html=1;fillColor=#d5e8d4;gradientColor=#97d077;strokeColor=#82b366;" vertex="1" parent="1">
          <mxGeometry x="400" y="680" width="170" height="150" as="geometry">
            <mxRectangle x="55" y="150" width="90" height="30" as="alternateBounds" />
          </mxGeometry>
        </mxCell>
        <mxCell id="hZipX3X4iWpMDmQYpv_X-24" value="Aging" style="text;strokeColor=none;fillColor=none;align=left;verticalAlign=middle;spacingLeft=4;spacingRight=4;overflow=hidden;points=[[0,0.5],[1,0.5]];portConstraint=eastwest;rotatable=0;whiteSpace=wrap;html=1;" vertex="1" parent="hZipX3X4iWpMDmQYpv_X-23">
          <mxGeometry y="30" width="170" height="30" as="geometry" />
        </mxCell>
        <mxCell id="hZipX3X4iWpMDmQYpv_X-25" value="Consume Resource" style="text;strokeColor=none;fillColor=none;align=left;verticalAlign=middle;spacingLeft=4;spacingRight=4;overflow=hidden;points=[[0,0.5],[1,0.5]];portConstraint=eastwest;rotatable=0;whiteSpace=wrap;html=1;" vertex="1" parent="hZipX3X4iWpMDmQYpv_X-23">
          <mxGeometry y="60" width="170" height="30" as="geometry" />
        </mxCell>
        <mxCell id="hZipX3X4iWpMDmQYpv_X-26" value="Update status" style="text;strokeColor=none;fillColor=none;align=left;verticalAlign=middle;spacingLeft=4;spacingRight=4;overflow=hidden;points=[[0,0.5],[1,0.5]];portConstraint=eastwest;rotatable=0;whiteSpace=wrap;html=1;" vertex="1" parent="hZipX3X4iWpMDmQYpv_X-23">
          <mxGeometry y="90" width="170" height="30" as="geometry" />
        </mxCell>
        <mxCell id="hZipX3X4iWpMDmQYpv_X-55" value="Citizen Sleeps (night shift)" style="text;strokeColor=none;fillColor=none;align=left;verticalAlign=middle;spacingLeft=4;spacingRight=4;overflow=hidden;points=[[0,0.5],[1,0.5]];portConstraint=eastwest;rotatable=0;whiteSpace=wrap;html=1;" vertex="1" parent="hZipX3X4iWpMDmQYpv_X-23">
          <mxGeometry y="120" width="170" height="30" as="geometry" />
        </mxCell>
        <mxCell id="hZipX3X4iWpMDmQYpv_X-36" style="edgeStyle=orthogonalEdgeStyle;rounded=0;orthogonalLoop=1;jettySize=auto;html=1;" edge="1" parent="1" source="hZipX3X4iWpMDmQYpv_X-29" target="hZipX3X4iWpMDmQYpv_X-15">
          <mxGeometry relative="1" as="geometry" />
        </mxCell>
        <mxCell id="hZipX3X4iWpMDmQYpv_X-29" value="TownShip" style="swimlane;fontStyle=0;childLayout=stackLayout;horizontal=1;startSize=30;horizontalStack=0;resizeParent=1;resizeParentMax=0;resizeLast=0;collapsible=1;marginBottom=0;whiteSpace=wrap;html=1;fillColor=#ffcd28;strokeColor=#d79b00;gradientColor=#ffa500;" vertex="1" parent="1">
          <mxGeometry x="30" y="380" width="140" height="120" as="geometry">
            <mxRectangle x="55" y="150" width="90" height="30" as="alternateBounds" />
          </mxGeometry>
        </mxCell>
        <mxCell id="hZipX3X4iWpMDmQYpv_X-30" value="Repair Facility" style="text;strokeColor=none;fillColor=none;align=left;verticalAlign=middle;spacingLeft=4;spacingRight=4;overflow=hidden;points=[[0,0.5],[1,0.5]];portConstraint=eastwest;rotatable=0;whiteSpace=wrap;html=1;" vertex="1" parent="hZipX3X4iWpMDmQYpv_X-29">
          <mxGeometry y="30" width="140" height="30" as="geometry" />
        </mxCell>
        <mxCell id="hZipX3X4iWpMDmQYpv_X-31" value="ReAttribute Homeless" style="text;strokeColor=none;fillColor=none;align=left;verticalAlign=middle;spacingLeft=4;spacingRight=4;overflow=hidden;points=[[0,0.5],[1,0.5]];portConstraint=eastwest;rotatable=0;whiteSpace=wrap;html=1;" vertex="1" parent="hZipX3X4iWpMDmQYpv_X-29">
          <mxGeometry y="60" width="140" height="30" as="geometry" />
        </mxCell>
        <mxCell id="hZipX3X4iWpMDmQYpv_X-32" value="ReAttribute Work" style="text;strokeColor=none;fillColor=none;align=left;verticalAlign=middle;spacingLeft=4;spacingRight=4;overflow=hidden;points=[[0,0.5],[1,0.5]];portConstraint=eastwest;rotatable=0;whiteSpace=wrap;html=1;" vertex="1" parent="hZipX3X4iWpMDmQYpv_X-29">
          <mxGeometry y="90" width="140" height="30" as="geometry" />
        </mxCell>
        <mxCell id="hZipX3X4iWpMDmQYpv_X-42" style="edgeStyle=orthogonalEdgeStyle;rounded=0;orthogonalLoop=1;jettySize=auto;html=1;" edge="1" parent="1" source="hZipX3X4iWpMDmQYpv_X-40" target="hZipX3X4iWpMDmQYpv_X-4">
          <mxGeometry relative="1" as="geometry" />
        </mxCell>
        <mxCell id="hZipX3X4iWpMDmQYpv_X-40" value="Citizen : Leisure" style="whiteSpace=wrap;html=1;fontStyle=0;startSize=30;horizontal=1;fillColor=#dae8fc;gradientColor=#7ea6e0;strokeColor=#6c8ebf;" vertex="1" parent="1">
          <mxGeometry x="40" y="610" width="120" height="60" as="geometry" />
        </mxCell>
        <mxCell id="hZipX3X4iWpMDmQYpv_X-48" value="" style="edgeStyle=orthogonalEdgeStyle;rounded=0;orthogonalLoop=1;jettySize=auto;html=1;" edge="1" parent="1" source="hZipX3X4iWpMDmQYpv_X-43" target="hZipX3X4iWpMDmQYpv_X-44">
          <mxGeometry relative="1" as="geometry" />
        </mxCell>
        <mxCell id="hZipX3X4iWpMDmQYpv_X-43" value="Live_Night" style="rounded=0;whiteSpace=wrap;html=1;" vertex="1" parent="1">
          <mxGeometry x="500" y="60" width="120" height="60" as="geometry" />
        </mxCell>
        <mxCell id="hZipX3X4iWpMDmQYpv_X-49" value="" style="edgeStyle=orthogonalEdgeStyle;rounded=0;orthogonalLoop=1;jettySize=auto;html=1;" edge="1" parent="1" source="hZipX3X4iWpMDmQYpv_X-44" target="hZipX3X4iWpMDmQYpv_X-45">
          <mxGeometry relative="1" as="geometry" />
        </mxCell>
        <mxCell id="hZipX3X4iWpMDmQYpv_X-44" value="Event" style="whiteSpace=wrap;html=1;fontStyle=0;startSize=30;horizontal=1;" vertex="1" parent="1">
          <mxGeometry x="500" y="170" width="120" height="60" as="geometry" />
        </mxCell>
        <mxCell id="hZipX3X4iWpMDmQYpv_X-51" value="" style="edgeStyle=orthogonalEdgeStyle;rounded=0;orthogonalLoop=1;jettySize=auto;html=1;" edge="1" parent="1" source="hZipX3X4iWpMDmQYpv_X-45" target="hZipX3X4iWpMDmQYpv_X-46">
          <mxGeometry relative="1" as="geometry" />
        </mxCell>
        <mxCell id="hZipX3X4iWpMDmQYpv_X-45" value="Update liste facilities &amp;amp; citizens" style="whiteSpace=wrap;html=1;fontStyle=0;startSize=30;horizontal=1;" vertex="1" parent="1">
          <mxGeometry x="500" y="270" width="120" height="60" as="geometry" />
        </mxCell>
        <mxCell id="hZipX3X4iWpMDmQYpv_X-54" value="" style="edgeStyle=orthogonalEdgeStyle;rounded=0;orthogonalLoop=1;jettySize=auto;html=1;" edge="1" parent="1" source="hZipX3X4iWpMDmQYpv_X-46" target="hZipX3X4iWpMDmQYpv_X-53">
          <mxGeometry relative="1" as="geometry" />
        </mxCell>
        <mxCell id="hZipX3X4iWpMDmQYpv_X-46" value="Facilities : Production" style="whiteSpace=wrap;html=1;fontStyle=0;startSize=30;horizontal=1;" vertex="1" parent="1">
          <mxGeometry x="500" y="370" width="120" height="60" as="geometry" />
        </mxCell>
        <mxCell id="hZipX3X4iWpMDmQYpv_X-53" value="Citizen Sleeps (day shift)" style="whiteSpace=wrap;html=1;fontStyle=0;startSize=30;horizontal=1;" vertex="1" parent="1">
          <mxGeometry x="490" y="465" width="140" height="60" as="geometry" />
        </mxCell>
        <mxCell id="OSZMAf41h5J0GVBBbzqU-2" value="produce" style="swimlane;fontStyle=0;childLayout=stackLayout;horizontal=1;startSize=30;horizontalStack=0;resizeParent=1;resizeParentMax=0;resizeLast=0;collapsible=1;marginBottom=0;whiteSpace=wrap;html=1;fillColor=#dae8fc;gradientColor=#7ea6e0;strokeColor=#6c8ebf;" vertex="1" parent="1">
          <mxGeometry x="280" y="510" width="170" height="90" as="geometry">
            <mxRectangle x="55" y="150" width="90" height="30" as="alternateBounds" />
          </mxGeometry>
        </mxCell>
        <mxCell id="OSZMAf41h5J0GVBBbzqU-3" value="Check State" style="text;strokeColor=none;fillColor=none;align=left;verticalAlign=middle;spacingLeft=4;spacingRight=4;overflow=hidden;points=[[0,0.5],[1,0.5]];portConstraint=eastwest;rotatable=0;whiteSpace=wrap;html=1;" vertex="1" parent="OSZMAf41h5J0GVBBbzqU-2">
          <mxGeometry y="30" width="170" height="30" as="geometry" />
        </mxCell>
        <mxCell id="OSZMAf41h5J0GVBBbzqU-4" value="Produce" style="text;strokeColor=none;fillColor=none;align=left;verticalAlign=middle;spacingLeft=4;spacingRight=4;overflow=hidden;points=[[0,0.5],[1,0.5]];portConstraint=eastwest;rotatable=0;whiteSpace=wrap;html=1;" vertex="1" parent="OSZMAf41h5J0GVBBbzqU-2">
          <mxGeometry y="60" width="170" height="30" as="geometry" />
        </mxCell>
      </root>
    </mxGraphModel>
  </diagram>
</mxfile>
